PathFileType	4	(X/Y/Z)	OpenSim_Sub05_CSBaseline_Accel.trc
DataRate	CameraRate	NumFrames	NumMarkers	Units	OrigDataRate	OrigDataStartFrame	OrigNumFrames
100	100	34	8	m	100	5279	10557
Frame#	Time	torso_imu_offset_imu	pelvis_imu_offset_imu	tibia_r_imu_offset_imu	femur_r_imu_offset_imu	tibia_l_imu_offset_imu	femur_l_imu_offset_imu	toes_r_imu_offset_imu	toes_l_imu_offset_imu
				X1	Y1	Z1	X2	Y2	Z2	X3	Y3	Z3	X4	Y4	Z4	X5	Y5	Z5	X6	Y6	Z6	X7	Y7	Z7	X8		Y8	Z8	

5279	52.78000000	8.34221604	-0.41240715	5.99715004	8.98049239	0.11827476	2.09949142	9.91658298	1.70464565	0.26662778	9.34245501	-2.05606026	1.59121587	9.34896301	-3.79235630	0.27424434	7.86674259	-0.82891547	2.00604945	5.52474399	-1.60275211	8.21750414	10.92363060	5.04952617	13.42451697
5280	52.79000000	8.59565518	-0.39152709	6.02332044	9.17054815	0.11655535	2.08582682	10.02311997	1.49349169	0.04674689	9.70815556	-1.76801470	1.84418918	9.05864403	-3.20984695	1.18166928	7.56532431	-0.65434659	2.11942819	5.24543582	-1.61680007	8.36344853	10.98058545	5.26677831	12.57241343
5281	52.80000000	8.83046360	-0.38968875	5.97534094	9.32837089	0.14994149	2.07491546	10.07889989	1.70233760	0.13086428	10.01607977	-1.76684089	1.91117715	9.46982347	-2.63949966	1.38337400	7.79685164	-0.27557804	2.14104261	5.38842643	-1.65452385	8.39168689	11.02106591	4.84078179	11.88470385
5282	52.81000000	8.97857737	-0.40892243	5.96411249	9.42074932	0.16852778	1.96218875	9.82809887	2.22398860	0.18994417	10.39588229	-2.02122438	1.76899021	10.49209492	-2.61389292	0.76117386	8.08217757	0.24193182	2.38003086	5.63511663	-1.61582179	8.23957604	10.94223086	4.22299228	11.24608501
5283	52.82000000	9.04114321	-0.46586047	5.97538244	9.44604300	0.18215037	2.05720610	9.78423757	2.26597498	0.18700176	9.93934023	-2.29583710	1.63197973	10.61997633	-2.98281682	-0.09132403	8.25383888	0.84601862	2.86560422	5.56936936	-1.37542960	8.23521282	10.94815717	3.89581182	10.57845119
5284	52.83000000	9.00710460	-0.59729911	5.98806354	9.42265837	0.13845837	2.03165529	9.79012326	1.95436495	0.03418049	9.44417322	-2.33457924	1.90066942	10.55163168	-2.99914743	0.05040129	8.42760239	1.60122892	3.22850142	5.65162832	-1.36006555	8.25826185	11.30064058	3.33174214	9.74616916
5285	52.84000000	9.01472853	-0.59141135	6.07752163	9.36748651	0.06814286	2.07546021	10.11754516	1.44650196	-0.21220705	9.63204163	-2.02899613	2.21136873	10.89978969	-3.16492996	0.02529297	8.65080881	2.26971567	3.28743419	5.60507965	-1.56556649	8.17893615	12.27107466	2.58118126	8.88650847
5286	52.85000000	9.00849382	-0.64011494	6.20258936	9.21514393	0.11321375	2.17019806	10.50407883	1.00580189	-0.37798035	9.85725469	-1.76997830	2.09214396	10.90052647	-3.53121874	0.12969416	8.97837546	2.99968848	3.24351524	5.59892513	-1.62662132	8.28722920	13.52118489	2.19002605	7.96033627
5287	52.86000000	9.08647397	-0.68458121	6.18177922	9.11326388	0.19824667	2.25462997	10.68537029	0.43849706	-0.51589352	9.79451621	-1.55611536	1.81767091	10.52546128	-3.66259296	0.48691204	8.93947017	3.61697220	3.13718613	5.48529505	-1.92536361	8.30912427	14.73132288	2.03454188	6.57804611
5288	52.87000000	9.12634955	-0.68526318	6.08445610	8.99279053	0.29223383	2.16404522	10.73123185	0.19387778	-0.39179424	9.55454710	-1.17442979	1.58817200	10.14594354	-3.21427683	0.22166859	8.79018053	4.15569118	2.79321913	5.34971952	-2.03314739	8.42182250	16.96753404	1.17767813	5.24194053
5289	52.88000000	9.12422080	-0.73873320	5.96896319	8.93440210	0.50762000	2.00361127	10.77904262	-0.08608682	-0.07180463	9.55131492	-0.91038660	1.43114541	10.25598969	-3.22712209	0.36805700	8.71658591	4.54056184	2.31727268	5.25737664	-1.88380581	8.65553364	19.27905805	0.37791694	4.07261696
5290	52.89000000	9.23948113	-0.69144149	6.00451563	8.96072575	0.72336726	1.91456694	11.07001263	-0.23271498	0.24422645	9.98443615	-0.92538441	1.43486239	10.60313276	-3.76268078	0.27418651	8.77993606	4.61168652	2.30017432	5.45130411	-1.64106623	8.64671551	20.98088321	-0.20515367	2.73400788
5291	52.90000000	9.44103353	-0.60138074	6.08897171	9.08953827	0.79357702	1.77832485	11.50919197	-0.19702736	0.67913262	10.36052530	-1.37272344	1.53127410	10.48135018	-4.32023538	-0.09143194	9.19128909	4.60797981	2.43999743	5.41222950	-1.45933529	8.68947354	21.43276793	-0.46030380	1.04884653
5292	52.91000000	9.70419005	-0.44791138	6.07858017	9.22369200	0.68969123	1.67514972	11.50673257	0.07801243	1.05124067	10.33302533	-1.89727242	1.76438730	10.19346504	-4.57995955	-0.80133837	9.65093622	4.38417643	2.66833754	5.30515023	-1.20887928	8.89706389	20.23085712	-0.35312704	-0.32192740
5293	52.92000000	9.88786217	-0.33763993	6.16051079	9.40180627	0.52039054	1.61223272	11.42827977	0.30837994	1.45202380	10.35363647	-2.06084455	2.19903350	10.47205215	-4.34896263	-1.55818289	9.84145258	3.79392775	2.99708041	5.16323604	-1.01558686	9.14118853	18.12037646	1.15847695	-2.48578807
5294	52.93000000	9.98593871	-0.28404393	6.20011836	9.81180680	0.20564506	1.57069943	11.76238676	0.50074511	1.36117003	10.72049115	-2.33374125	2.05032609	10.94722247	-3.18299377	-1.51697034	10.04821197	2.95616465	3.24663700	5.44623967	-0.69258860	9.06374479	18.62633809	-0.00595073	-3.92490195
5295	52.94000000	10.06209619	-0.24896480	6.21325683	10.27808746	-0.14976620	1.41727301	12.29899026	0.54579994	1.51392667	10.88972144	-2.86345518	1.46889235	10.97823441	-2.44149873	-0.31040654	9.78935050	2.35514517	3.07505227	5.53545587	-0.68736798	9.04382142	20.87713898	-4.63274527	-4.41468078
5296	52.95000000	10.02962074	-0.18705570	6.23532634	10.69642530	-0.58243771	1.29364297	12.63498884	0.47956148	1.41425047	10.81618593	-3.44442506	1.45115068	10.97135666	-4.03147490	1.12754049	9.32703424	2.03225914	2.37578915	5.58274745	-0.63145863	9.04746546	23.62586797	-2.10443010	-4.88670270
5297	52.96000000	10.04956413	-0.05996382	6.37464495	11.02343409	-0.75030888	1.26745197	13.18499482	0.03975354	1.61956103	11.04884720	-3.63639310	2.33694604	10.60587794	-6.81178724	1.84854439	8.88728783	1.70324712	0.91758681	5.54983726	-0.27360001	9.30927775	12.34762824	-3.61795524	-3.13976834
5298	52.97000000	10.17194405	0.00984751	6.35986450	11.19250282	-0.45629818	1.40680043	14.12068790	-0.82278810	1.49859138	11.47022623	-3.36026071	3.43465252	9.63415959	-8.87855262	1.17662288	7.97020745	0.80505660	-0.25470644	5.32264171	-0.92716635	9.51806163	13.91242415	-2.03142145	14.39899011
5299	52.98000000	10.48512173	0.18315027	6.55509593	11.36170835	-0.17115260	2.19960226	15.21680623	-1.45165905	1.69356650	11.96092362	-2.98062208	3.75697256	8.53750903	-8.35487808	0.07806873	8.83619919	-0.21280270	0.32674897	5.17664255	-1.77849357	9.84645059	11.14462713	-3.47265136	23.18867722
5300	52.99000000	11.02644857	0.52073545	6.73605279	11.61505958	-0.39929466	3.03894103	16.47331892	-2.04132921	2.27229831	12.37926206	-2.88474022	3.63034271	10.41606422	-2.81594410	3.59818477	11.94644109	-0.97450451	2.18298020	4.02834869	-1.97353880	10.43820670	4.40662456	-5.37071449	16.11707131
5301	53.00000000	11.74102245	0.95519263	6.97896508	11.75478431	-1.09482914	3.66535230	17.25143666	-2.77815303	3.27611115	12.16879581	-2.86561956	3.69729209	14.11592366	2.37282338	6.64794740	14.29544978	-2.20221221	3.38458492	3.85822222	-3.02126073	11.04409418	6.10693073	0.22223222	13.33591633
5302	53.01000000	12.17699119	1.34194909	6.82680766	11.96258618	-1.89678834	4.20226864	16.77324464	-3.11470899	3.11335674	11.18451274	-3.14567919	3.85853839	13.59721165	-0.01360674	5.35402456	13.47942926	-2.90653083	3.09534023	4.99592284	-3.78844725	10.98944872	10.37164379	7.36318464	14.69245893
5303	53.02000000	11.70491574	1.59556333	6.76445460	12.06269544	-2.49021768	4.62009790	15.87779446	-3.56335013	2.85153093	10.10721056	-3.69967279	3.79513755	11.15387584	-5.09332754	0.94367740	12.47092185	-1.58832539	2.14056155	5.68101583	-2.44578497	11.56120112	9.70854314	5.90370303	13.40416223
5304	53.03000000	10.66772795	1.79970018	6.73979643	11.62512326	-2.78435737	4.87029240	15.52190338	-5.97046402	1.99165390	9.18327858	-3.77732829	4.51689454	10.44917548	-6.39413712	-2.66783069	13.52008137	1.49765240	1.83022292	8.08493237	-3.30147711	11.23391172	9.04609007	1.52262480	12.15120428
5305	53.04000000	9.70859762	2.14079250	6.56724784	10.73327060	-2.93489341	4.60886657	14.95217695	-7.79997064	1.76175459	8.80323914	-2.73664463	5.70594635	10.25260886	-6.11463551	-3.18237961	12.34675563	3.73297000	1.32371664	8.85155972	-4.60623603	11.29952079	8.27662124	1.46497200	10.99053611
5306	53.05000000	8.69478019	2.42460540	5.99692552	9.65273307	-2.98780210	4.23463928	13.40966915	-5.12662817	0.46908558	9.26293386	-1.34765462	5.64028606	9.67604778	-5.30160971	-2.18187944	8.71787949	3.27868774	-0.59928227	11.10859266	-3.63729929	11.06732579	6.58072356	3.59833914	10.72611448
5307	53.06000000	7.62730416	2.50887300	5.54950665	8.73582731	-2.60597996	4.00521886	11.44409858	0.95248165	-0.47999512	9.50037129	-1.06389665	4.29417757	8.97186868	-2.73849414	-1.30911101	7.36080869	0.66149052	-1.94373377	12.91830842	-1.84814158	10.28395768	5.42931556	3.98732946	10.79563273
5308	53.07000000	7.06614456	2.74057835	5.35964460	8.05697641	-1.98446340	3.79100335	9.91365808	6.78294681	-0.48937892	9.98864916	-1.35232209	2.43410360	8.64624069	-0.02214666	-0.80597354	8.26261824	-1.87949346	-1.34699194	15.61159527	-2.89980792	9.05108912	4.75239236	3.28214380	10.90204022
5309	53.08000000	6.93238195	3.02892424	5.14331325	7.56807858	-1.56388906	3.77335881	9.16604072	10.15672258	-1.29906740	10.87833982	-1.41510968	1.67195902	9.05972171	0.82240556	-0.78452303	9.22957224	-2.20621853	-0.86746808	15.40010589	-3.69848151	8.62689223	4.66921452	3.04836565	11.00981351
5310	53.09000000	7.18860819	3.18451185	5.01920000	7.52400659	-1.58119089	3.72602188	8.73563258	11.04279585	-1.74664758	11.53533333	-1.43054849	2.73517335	10.01510509	0.07086528	-1.22577509	9.40121493	-1.04938043	-1.12183561	14.10420259	-3.05287842	9.00451976	4.41745325	3.96626773	11.35992085
5311	53.10000000	7.85948187	2.99456264	4.96491486	7.80485530	-1.95967452	3.42440228	7.86067237	10.52066989	-1.44528289	11.82685465	-0.96725336	4.69146989	10.69146888	-1.24256190	-1.85411994	9.89077033	0.15062988	-1.15207162	10.69548127	-2.93663978	8.24766067	4.67512532	3.22506276	11.35392209
5312	53.11000000	8.71396238	2.62052424	5.01195661	8.20610960	-2.45053322	3.02687500	6.14283258	10.14407888	-1.13824058	11.79716388	-0.70564346	5.20652311	10.55519060	-2.09407921	-1.79578785	10.57762876	1.13300610	-1.01914619	8.18336103	-4.79034269	15.51196545	5.31915727	2.05383464	11.27867598
